<svg width="1024" height="1024" viewBox="0 0 1024 1024" xmlns="http://www.w3.org/2000/svg">
  <!-- Sfondo principale nero con angoli arrotondati -->
  <rect width="1024" height="1024" rx="120" ry="120" fill="#000000"/>
  
  <!-- Angolo piegato rosso in alto a destra -->
  <path d="M 904 0 L 1024 0 L 1024 120 L 904 120 Z" fill="#dc2626"/>
  
  <!-- Lettera T bianca con bordo rosso -->
  <g transform="translate(512, 400)">
    <!-- Bordo rosso della T -->
    <path d="M -200 -200 L 200 -200 L 200 -180 L 40 -180 L 40 200 L -40 200 L -40 -180 L -200 -180 Z" fill="#dc2626"/>
    <!-- T bianca -->
    <path d="M -180 -180 L 180 -180 L 180 -160 L 20 -160 L 20 180 L -20 180 L -20 -160 L -180 -160 Z" fill="#ffffff"/>
  </g>
  
  <!-- Underscore/linea bianca con bordo rosso -->
  <g transform="translate(512, 600)">
    <!-- Bordo rosso dell'underscore -->
    <rect x="-120" y="-20" width="240" height="40" rx="10" ry="10" fill="#dc2626"/>
    <!-- Underscore bianco -->
    <rect x="-100" y="-10" width="200" height="20" rx="5" ry="5" fill="#ffffff"/>
  </g>
</svg>
